<svg width="19" height="19" viewBox="0 0 19 19" fill="none" xmlns="http://www.w3.org/2000/svg">
<circle cx="9.5" cy="9.5" r="9.5" fill="#DBFF00"/>
<path d="M12.825 8.55C13.2208 8.55 13.5573 8.41146 13.8344 8.13437C14.1115 7.85729 14.25 7.52083 14.25 7.125C14.25 6.72917 14.1115 6.39271 13.8344 6.11562C13.5573 5.83854 13.2208 5.7 12.825 5.7C12.4292 5.7 12.0927 5.83854 11.8156 6.11562C11.5385 6.39271 11.4 6.72917 11.4 7.125C11.4 7.52083 11.5385 7.85729 11.8156 8.13437C12.0927 8.41146 12.4292 8.55 12.825 8.55ZM6.175 8.55C6.57083 8.55 6.90729 8.41146 7.18437 8.13437C7.46146 7.85729 7.6 7.52083 7.6 7.125C7.6 6.72917 7.46146 6.39271 7.18437 6.11562C6.90729 5.83854 6.57083 5.7 6.175 5.7C5.77917 5.7 5.44271 5.83854 5.16563 6.11562C4.88854 6.39271 4.75 6.72917 4.75 7.125C4.75 7.52083 4.88854 7.85729 5.16563 8.13437C5.44271 8.41146 5.77917 8.55 6.175 8.55ZM9.5 14.725C10.5767 14.725 11.5544 14.4202 12.4331 13.8106C13.3119 13.201 13.9492 12.3975 14.345 11.4H12.7775C12.4292 11.9858 11.966 12.449 11.3881 12.7894C10.8102 13.1298 10.1808 13.3 9.5 13.3C8.81917 13.3 8.18979 13.1298 7.61188 12.7894C7.03396 12.449 6.57083 11.9858 6.2225 11.4H4.655C5.05083 12.3975 5.68813 13.201 6.56687 13.8106C7.44562 14.4202 8.42333 14.725 9.5 14.725ZM9.5 19C8.18583 19 6.95083 18.7506 5.795 18.2519C4.63917 17.7531 3.63375 17.0763 2.77875 16.2213C1.92375 15.3663 1.24688 14.3608 0.748125 13.205C0.249375 12.0492 0 10.8142 0 9.5C0 8.18583 0.249375 6.95083 0.748125 5.795C1.24688 4.63917 1.92375 3.63375 2.77875 2.77875C3.63375 1.92375 4.63917 1.24688 5.795 0.748125C6.95083 0.249375 8.18583 0 9.5 0C10.8142 0 12.0492 0.249375 13.205 0.748125C14.3608 1.24688 15.3663 1.92375 16.2213 2.77875C17.0763 3.63375 17.7531 4.63917 18.2519 5.795C18.7506 6.95083 19 8.18583 19 9.5C19 10.8142 18.7506 12.0492 18.2519 13.205C17.7531 14.3608 17.0763 15.3663 16.2213 16.2213C15.3663 17.0763 14.3608 17.7531 13.205 18.2519C12.0492 18.7506 10.8142 19 9.5 19ZM9.5 17.1C11.6217 17.1 13.4187 16.3638 14.8912 14.8912C16.3638 13.4187 17.1 11.6217 17.1 9.5C17.1 7.37833 16.3638 5.58125 14.8912 4.10875C13.4187 2.63625 11.6217 1.9 9.5 1.9C7.37833 1.9 5.58125 2.63625 4.10875 4.10875C2.63625 5.58125 1.9 7.37833 1.9 9.5C1.9 11.6217 2.63625 13.4187 4.10875 14.8912C5.58125 16.3638 7.37833 17.1 9.5 17.1Z" fill="black"/>
</svg>
