<svg width="21" height="17" viewBox="0 0 21 17" fill="none" xmlns="http://www.w3.org/2000/svg">
<path d="M3.89329 15.1554C2.17067 13.7341 1.20482 11.9323 0.995751 9.75031C0.786682 7.56827 1.39284 5.61594 2.81423 3.89332C4.23561 2.17069 6.03733 1.20484 8.21936 0.995775C10.4014 0.786706 12.3537 1.39286 14.0764 2.81425C14.9634 3.54616 15.6607 4.42944 16.1683 5.46408C16.6758 6.49872 16.9378 7.59538 16.9541 8.75405L18.7043 6.6329L20.247 7.90579L15.7919 13.3051L10.3926 8.84997L11.6655 7.30732L14.905 9.98037C15.0877 8.92103 14.992 7.89132 14.6179 6.89124C14.2439 5.89116 13.6391 5.04638 12.8035 4.3569C11.5179 3.29616 10.054 2.84448 8.41157 3.00184C6.76918 3.15921 5.41761 3.88066 4.35688 5.1662C3.29614 6.45174 2.84445 7.91571 3.00182 9.5581C3.15918 11.2005 3.88063 12.5521 5.16618 13.6128C6.15604 14.4296 7.28286 14.884 8.54661 14.976C9.81037 15.068 10.9848 14.7838 12.0699 14.1234L13.6897 15.4599C12.2054 16.5256 10.5551 17.033 8.73882 16.982C6.92256 16.9311 5.30739 16.3223 3.89329 15.1554Z" fill="#F7F7F7"/>
</svg>
