<svg width="19" height="19" viewBox="0 0 19 19" fill="none" xmlns="http://www.w3.org/2000/svg">
<path d="M2.78249 16.2175C3.88719 17.3222 5.24728 18.1374 6.7423 18.5909C8.23731 19.0444 9.82109 19.1222 11.3534 18.8175C12.8856 18.5127 14.3191 17.8347 15.5267 16.8436C16.7344 15.8525 17.679 14.5789 18.2769 13.1355C18.8747 11.6921 19.1074 10.1236 18.9543 8.56884C18.8011 7.01408 18.2669 5.52108 17.399 4.22208C16.531 2.92309 15.3561 1.8582 13.9783 1.12175C12.6005 0.385292 11.0623 1.17949e-07 9.5 0L9.5 9.5L2.78249 16.2175Z" fill="#24FF00"/>
<circle cx="9.5" cy="9.5" r="8" stroke="#0F0F0F" stroke-width="3"/>
</svg>
